<svg id="Layer_1" data-name="Layer 1" xmlns="http://www.w3.org/2000/svg" xmlns:xlink="http://www.w3.org/1999/xlink" viewBox="0 0 1080 1080"><defs><style>.cls-1{fill:none;}.cls-2{isolation:isolate;}.cls-3{clip-path:url(#clip-path);}.cls-4{fill:#a302a3;}.cls-5{fill:#e606d4;}.cls-6{clip-path:url(#clip-path-2);}.cls-7{clip-path:url(#clip-path-3);}.cls-8{clip-path:url(#clip-path-4);}.cls-9{fill:#7c0479;}.cls-10{clip-path:url(#clip-path-5);}.cls-11{clip-path:url(#clip-path-6);}.cls-12{clip-path:url(#clip-path-7);}.cls-13{clip-path:url(#clip-path-8);}.cls-14{fill:#8c8c8c;}.cls-15{clip-path:url(#clip-path-9);}.cls-16{clip-path:url(#clip-path-10);}.cls-17{clip-path:url(#clip-path-11);}.cls-18{clip-path:url(#clip-path-12);}.cls-19{clip-path:url(#clip-path-13);}.cls-20{clip-path:url(#clip-path-14);}.cls-21{clip-path:url(#clip-path-15);}.cls-22{clip-path:url(#clip-path-16);}.cls-23{clip-path:url(#clip-path-17);}.cls-24{clip-path:url(#clip-path-18);}.cls-25{clip-path:url(#clip-path-19);}.cls-26{clip-path:url(#clip-path-20);}.cls-27{clip-path:url(#clip-path-21);}.cls-28{clip-path:url(#clip-path-22);}.cls-29{clip-path:url(#clip-path-23);}.cls-30{fill:#787878;}.cls-31{clip-path:url(#clip-path-24);}.cls-32{clip-path:url(#clip-path-25);}.cls-33{fill:#858585;}.cls-34{clip-path:url(#clip-path-26);}.cls-35{clip-path:url(#clip-path-27);}.cls-36{fill:#818181;}.cls-37{clip-path:url(#clip-path-28);}.cls-38{clip-path:url(#clip-path-29);}.cls-39{clip-path:url(#clip-path-30);}.cls-40{clip-path:url(#clip-path-31);}.cls-41{clip-path:url(#clip-path-32);}.cls-42{clip-path:url(#clip-path-33);}.cls-43{clip-path:url(#clip-path-34);}.cls-44{clip-path:url(#clip-path-35);}.cls-45{fill:#c9c9c9;}.cls-46{clip-path:url(#clip-path-36);}.cls-47{clip-path:url(#clip-path-37);}.cls-48{clip-path:url(#clip-path-38);}.cls-49{clip-path:url(#clip-path-39);}.cls-50{clip-path:url(#clip-path-40);}.cls-51{clip-path:url(#clip-path-41);}.cls-52{clip-path:url(#clip-path-42);}.cls-53{clip-path:url(#clip-path-43);}.cls-54{fill:#737373;}.cls-55{clip-path:url(#clip-path-44);}.cls-56{clip-path:url(#clip-path-45);}.cls-57{clip-path:url(#clip-path-46);}.cls-58{clip-path:url(#clip-path-47);}.cls-59{clip-path:url(#clip-path-48);}.cls-60{clip-path:url(#clip-path-49);}.cls-61{clip-path:url(#clip-path-50);}.cls-62{clip-path:url(#clip-path-51);}.cls-63{clip-path:url(#clip-path-52);}.cls-64{clip-path:url(#clip-path-53);}.cls-65{clip-path:url(#clip-path-54);}</style><clipPath id="clip-path"><path class="cls-1" d="M308.78,642.05l18.12-60.42q2.3,18.51,4.6,37t4.6,37q2.29,18.5,4.6,37l4.59,37-16.55,72.93q-2.49-20.06-5-40.11t-5-40.12q-2.49-20.07-5-40.13T308.78,642.05Z"/></clipPath><clipPath id="clip-path-2"><path class="cls-1" d="M345.14,588.57q.69,6.69,1.37,13.37t1.36,13.37q.67,6.69,1.36,13.37t1.36,13.37H308.78q2.49,20.07,5,40.14t5,40.13q2.5,20.05,5,40.12t5,40.11H290.56q-2.94-20.06-5.89-40.11t-5.9-40.12q-3-20.07-5.9-40.13T267,642.05H225.23q-1.14-6.69-2.27-13.37t-2.27-13.37q-1.14-6.69-2.27-13.37t-2.27-13.37h129Z"/></clipPath><clipPath id="clip-path-3"><path class="cls-1" d="M345.14,588.57l15.28-56.24,1.26,12.33L362.94,557q.62,6.16,1.25,12.33t1.25,12.32l-14.85,60.42q-.68-6.69-1.36-13.37t-1.36-13.37q-.67-6.69-1.36-13.37T345.14,588.57Z"/></clipPath><clipPath id="clip-path-4"><path class="cls-1" d="M216.15,588.57l25.37-56.24h118.9l-15.28,56.24h-129Z"/></clipPath><clipPath id="clip-path-5"><path class="cls-1" d="M420.49,749.12l9.38-68.76h36.32l-6.31,68.76H420.49Z"/></clipPath><clipPath id="clip-path-6"><path class="cls-1" d="M413.22,642.05l9.95-60.42,1.68,24.69q.84,12.34,1.67,24.69l1.68,24.67q.84,12.35,1.67,24.68l-9.38,68.76q-.9-13.38-1.82-26.76t-1.81-26.76q-.92-13.38-1.82-26.77T413.22,642.05Z"/></clipPath><clipPath id="clip-path-7"><path class="cls-1" d="M499.83,588.57c.09,2.67.12,16.72.11,36.46s-.05,45.15-.09,70.56-.09,50.82-.09,70.54,0,33.75.1,36.42H383.51c-.21-2.67-1.25-16.71-2.7-36.42s-3.3-45.13-5.17-70.54-3.72-50.83-5.17-70.56-2.49-33.79-2.7-36.46H499.83ZM420.49,749.12h39.39q-.6-13.38-1.21-26.76t-1.21-26.76q-.6-13.38-1.21-26.77T455,642.05H413.22q.9,13.4,1.82,26.78t1.82,26.77q.9,13.38,1.81,26.76t1.82,26.76"/></clipPath><clipPath id="clip-path-8"><path class="cls-1" d="M499.83,588.57,503,532.33c.08,2.46.11,15.42.1,33.61s-.05,41.63-.09,65.06-.07,46.86-.08,65,0,31.12.1,33.58l-3.18,72.93c-.09-2.67-.11-16.71-.1-36.42s.05-45.13.09-70.54.08-50.83.09-70.56S499.92,591.24,499.83,588.57Z"/></clipPath><clipPath id="clip-path-9"><path class="cls-1" d="M367.77,588.57l13.51-56.24H503l-3.18,56.24H367.77Z"/></clipPath><clipPath id="clip-path-10"><path class="cls-1" d="M786.65,802.55,767.4,729.62q.92-6.17,1.82-12.32T771,705l1.8-12.32q.92-6.15,1.81-12.31l19.86,68.76q-1,6.68-2,13.36t-2,13.36q-1,6.67-2,13.35T786.65,802.55Z"/></clipPath><clipPath id="clip-path-11"><path class="cls-1" d="M761.77,695.59,744.47,631h37.42l20.48,64.59h-40.6Z"/></clipPath><clipPath id="clip-path-12"><path class="cls-1" d="M802.37,695.59,781.89,631q.9-6.16,1.81-12.33t1.81-12.34q.91-6.18,1.82-12.35t1.81-12.35l21.1,60.42q-1,6.69-2,13.39t-2,13.39q-1,6.69-2,13.38T802.37,695.59Z"/></clipPath><clipPath id="clip-path-13"><path class="cls-1" d="M710.34,802.55l-13.28-72.93c1.47-14.38,3.44-33.28,5.6-53.7s4.51-42.35,6.7-62.8,4.24-39.42,5.81-53.89,2.66-24.44,2.94-26.9l15.07,56.24c-.3,2.67-1.48,13.49-3.19,29.18s-3.92,36.26-6.3,58.45-4.93,46-7.27,68.11S711.93,787,710.34,802.55Z"/></clipPath><clipPath id="clip-path-14"><path class="cls-1" d="M653.1,802.55l3.63-53.47q1.8-26.75,3.62-53.49l3.63-53.5,3.63-53.52h43q-2.42,26.76-4.84,53.52t-4.84,53.5q-2.43,26.74-4.84,53.49l-4.83,53.47H653.1Z"/></clipPath><clipPath id="clip-path-15"><path class="cls-1" d="M653.1,802.55l-8.8-72.93q1.66-24.64,3.34-49.3T651,631q1.66-24.66,3.34-49.32t3.35-49.35l9.94,56.24L664,642.09l-3.63,53.5q-1.82,26.74-3.62,53.49Z"/></clipPath><clipPath id="clip-path-16"><path class="cls-1" d="M667.61,588.57l-9.94-56.24h39.61l13.3,56.24h-43Z"/></clipPath><clipPath id="clip-path-17"><path class="cls-1" d="M733.18,588.57l-15.07-56.24H838.54l25.29,56.24H733.18Z"/></clipPath><clipPath id="clip-path-18"><path class="cls-1" d="M710.34,802.55c1.59-15.6,3.74-36.09,6.08-58.24s4.89-45.94,7.27-68.11,4.6-42.76,6.3-58.45,2.89-26.51,3.19-29.18H863.83c-.42,2.67-2.41,13.49-5.32,29.18S851.77,654,847.66,676.2s-8.5,46-12.52,68.11-7.67,42.64-10.31,58.24H786.65q1-6.67,2-13.36t2-13.35q1-6.69,2-13.36t2-13.36H755.12q-.84,6.68-1.66,13.36t-1.67,13.36q-.82,6.67-1.66,13.35t-1.66,13.36H710.34Zm58.09-160.5q-.84,6.69-1.67,13.39t-1.66,13.39q-.84,6.69-1.67,13.38t-1.66,13.38h40.6q1-6.69,2-13.38t2-13.38q1-6.71,2-13.39t2-13.39H768.43"/></clipPath><clipPath id="clip-path-19"><path class="cls-1" d="M559.18,668.85l-1.46-62.5h38l4.68,62.5h-41.2Z"/></clipPath><clipPath id="clip-path-20"><path class="cls-1" d="M600.38,668.85l-4.68-62.5c.08-2.47.16-4.63.23-6.64s.13-3.86.19-5.72.13-3.7.2-5.71.14-4.17.22-6.65l4.76,60.42c-.09,2.68-.17,5-.25,7.2s-.14,4.19-.21,6.2-.13,4-.21,6.2S600.47,666.17,600.38,668.85Z"/></clipPath><clipPath id="clip-path-21"><path class="cls-1" d="M519.54,802.55l-.6-53.47q-.3-26.75-.61-53.49l-.6-53.5q-.3-26.76-.61-53.52h128c-.12,2.67-.53,11.7-1.09,23.91s-1.26,27.6-2,43-1.4,30.76-2,43-1,21.22-1.09,23.9H558.57q-.11,10-.22,20t-.22,20.06q-.12,10-.23,20t-.23,20.06H519.54Zm39.94-160.5c0,2.68-.06,5-.08,7.2s0,4.19-.07,6.2-.05,4-.07,6.2,0,4.52-.08,7.2h41.2c.09-2.68.18-5,.25-7.2s.15-4.19.21-6.2.14-4,.21-6.2.16-4.52.25-7.2H559.48"/></clipPath><clipPath id="clip-path-22"><path class="cls-1" d="M517.12,588.57,519,532.33h118l8.19,56.24h-128Z"/></clipPath><clipPath id="clip-path-23"><path class="cls-1" d="M426.71,332.8v44.82H388.92V332.8Z"/></clipPath><clipPath id="clip-path-24"><path class="cls-1" d="M294.55,332.8v44.82H256.78V332.8Z"/></clipPath><clipPath id="clip-path-25"><path class="cls-1" d="M388.92,332.8v44.82c-.92,11.1-1.39,16.65-2.31,27.75V360.55C387.53,349.44,388,343.9,388.92,332.8Z"/></clipPath><clipPath id="clip-path-26"><path class="cls-1" d="M338.69,277.45v44.82l-9.54,83.1V360.55Z"/></clipPath><clipPath id="clip-path-27"><path class="cls-1" d="M256.78,332.8v44.82c-1.73,11.1-2.6,16.64-4.34,27.75V360.55C254.18,349.44,255.05,343.9,256.78,332.8Z"/></clipPath><clipPath id="clip-path-28"><path class="cls-1" d="M329.15,360.55v44.82H310V360.55Z"/></clipPath><clipPath id="clip-path-29"><path class="cls-1" d="M462.18,388.22V433h-19.5V388.22Z"/></clipPath><clipPath id="clip-path-30"><path class="cls-1" d="M465.63,277.45v44.82c-.11,4.16-2.3,83.07-3.45,110.77V388.22C463.33,360.52,465.52,281.61,465.63,277.45Z"/></clipPath><clipPath id="clip-path-31"><path class="cls-1" d="M283.32,415.89v44.82H243.8V415.89Z"/></clipPath><clipPath id="clip-path-32"><path class="cls-1" d="M310,360.55v44.82Q306.5,433,303,460.71V415.89Q306.49,388.23,310,360.55Z"/></clipPath><clipPath id="clip-path-33"><path class="cls-1" d="M421.52,415.89v44.82H382V415.89Z"/></clipPath><clipPath id="clip-path-34"><path class="cls-1" d="M442.68,388.22V433c-.58,11.06-.86,16.59-1.44,27.67V415.89C441.82,404.81,442.1,399.28,442.68,388.22Z"/></clipPath><clipPath id="clip-path-35"><path class="cls-1" d="M243.8,415.89v44.82c-1.74,11.1-2.6,16.65-4.33,27.75V443.64C241.2,432.54,242.06,427,243.8,415.89Z"/></clipPath><clipPath id="clip-path-36"><path class="cls-1" d="M461,415.89v44.82q-1.71,41.55-3.45,83.08V499Q459.3,457.42,461,415.89Z"/></clipPath><clipPath id="clip-path-37"><path class="cls-1" d="M457.57,499v44.82H416.33V499Z"/></clipPath><clipPath id="clip-path-38"><path class="cls-1" d="M382,415.89v44.82q-3.45,41.55-6.91,83.08V499Q378.54,457.42,382,415.89Z"/></clipPath><clipPath id="clip-path-39"><path class="cls-1" d="M375.09,499v44.82H333.9V499Z"/></clipPath><clipPath id="clip-path-40"><path class="cls-1" d="M322.82,415.89v44.82c-2.12,18.47-8.7,79.85-9,83.08V499C314.12,495.74,320.7,434.36,322.82,415.89Z"/></clipPath><clipPath id="clip-path-41"><path class="cls-1" d="M558.86,332.8v44.82H521.07V332.8Z"/></clipPath><clipPath id="clip-path-42"><path class="cls-1" d="M560,443.64v44.82q-.57-55.43-1.15-110.84V332.8Q559.43,388.23,560,443.64Z"/></clipPath><clipPath id="clip-path-43"><path class="cls-1" d="M521.07,332.8v44.82q-.57,55.42-1.15,110.84V443.64Q520.49,388.22,521.07,332.8Z"/></clipPath><clipPath id="clip-path-44"><path class="cls-1" d="M861,332.8v44.82H785.39V332.8Z"/></clipPath><clipPath id="clip-path-45"><path class="cls-1" d="M731.68,360.55v44.82h-19.2V360.55Z"/></clipPath><clipPath id="clip-path-46"><path class="cls-1" d="M693.33,360.55v44.82q-3.47-41.55-6.92-83.1V277.45Q689.86,319,693.33,360.55Z"/></clipPath><clipPath id="clip-path-47"><path class="cls-1" d="M855.86,415.89v44.82H796.63V415.89Z"/></clipPath><clipPath id="clip-path-48"><path class="cls-1" d="M697.93,415.89v44.82h-39.5V415.89Z"/></clipPath><clipPath id="clip-path-49"><path class="cls-1" d="M890.34,499v44.82H766.68V499Z"/></clipPath><clipPath id="clip-path-50"><path class="cls-1" d="M766.68,499v44.82L741.33,322.27V277.45Z"/></clipPath><clipPath id="clip-path-51"><path class="cls-1" d="M746.09,499v44.82H704.85V499Z"/></clipPath><clipPath id="clip-path-52"><path class="cls-1" d="M704.85,499v44.82q-3.47-41.55-6.92-83.08V415.89Q701.4,457.44,704.85,499Z"/></clipPath><clipPath id="clip-path-53"><path class="cls-1" d="M663.62,499v44.82H622.43V499Z"/></clipPath><clipPath id="clip-path-54"><path class="cls-1" d="M622.43,499v44.82Q617.81,433,613.21,322.27V277.45Q617.81,388.21,622.43,499Z"/></clipPath></defs><path d="M903.18,497.84l-11.85-67H868.7v-16l-4.05-24.37h9.14V331.67l-.2-1.12c-2.51-14.13-8.15-46-10.65-60.16l-1-5.78H218.08L177,496.61l-.21,60h39.65l-13.64,30.22,11.55,68h41.5l23.59,160.5h556.2l41.44-228.6-13.56-30.15h39.63Z"/><g class="cls-2"><g class="cls-2"><g class="cls-3"><path class="cls-4" d="M308.78,642.05l18.12-60.42q2.3,18.51,4.6,37t4.6,37q2.29,18.5,4.6,37l4.59,37-16.55,72.93q-2.49-20.06-5-40.11t-5-40.12q-2.49-20.07-5-40.13t-5-40.14"/></g></g><path class="cls-5" d="M345.14,588.57q.69,6.69,1.37,13.37t1.36,13.37q.67,6.69,1.36,13.37t1.36,13.37H308.78q2.49,20.07,5,40.14t5,40.13q2.5,20.05,5,40.12t5,40.11H290.56q-2.94-20.06-5.89-40.11t-5.9-40.12q-3-20.07-5.9-40.13T267,642.05H225.23q-1.14-6.69-2.27-13.37t-2.27-13.37q-1.14-6.69-2.27-13.37t-2.27-13.37h129Z"/><g class="cls-2"><g class="cls-7"><path class="cls-4" d="M345.14,588.57l15.28-56.24,1.26,12.33L362.94,557q.62,6.16,1.25,12.33t1.25,12.32l-14.85,60.42q-.68-6.69-1.36-13.37t-1.36-13.37q-.67-6.69-1.36-13.37t-1.37-13.37"/></g></g><g class="cls-2"><g class="cls-8"><path class="cls-9" d="M216.15,588.57l25.37-56.24h118.9l-15.28,56.24h-129"/></g></g></g><g class="cls-2"><g class="cls-2"><g class="cls-10"><path class="cls-9" d="M420.49,749.12l9.38-68.76h36.32l-6.31,68.76H420.49"/></g></g><g class="cls-2"><g class="cls-11"><path class="cls-4" d="M413.22,642.05l9.95-60.42,1.68,24.69q.84,12.34,1.67,24.69l1.68,24.67q.84,12.35,1.67,24.68l-9.38,68.76q-.9-13.38-1.82-26.76t-1.81-26.76q-.92-13.38-1.82-26.77t-1.82-26.78"/></g></g><path class="cls-5" d="M499.83,588.57c.09,2.67.12,16.72.11,36.46s-.05,45.15-.09,70.56-.09,50.82-.09,70.54,0,33.75.1,36.42H383.51c-.21-2.67-1.25-16.71-2.7-36.42s-3.3-45.13-5.17-70.54-3.72-50.83-5.17-70.56-2.49-33.79-2.7-36.46H499.83ZM420.49,749.12h39.39q-.6-13.38-1.21-26.76t-1.21-26.76q-.6-13.38-1.21-26.77T455,642.05H413.22q.9,13.4,1.82,26.78t1.82,26.77q.9,13.38,1.81,26.76t1.82,26.76"/><g class="cls-2"><g class="cls-13"><g class="cls-2"><path class="cls-14" d="M499.83,588.57,503,532.33c0,.08,0,.17,0,.27s0,.21,0,.33v.39c0,.14,0,.29,0,.45l-3.18,56.36v-.49c0-.15,0-.29,0-.42s0-.25,0-.36a2.62,2.62,0,0,0,0-.29"/><path class="cls-4" d="M499.86,590.13,503,533.77c.06,4.73.08,18.07.07,35.71s-.05,39.59-.09,61.53-.07,43.87-.08,61.5,0,31,.07,35.67L499.83,801c-.07-5.12-.08-19.57-.07-38.69s.05-42.91.09-66.7.07-47.6.09-66.73,0-33.61-.08-38.74"/><path class="cls-14" d="M499.83,801,503,728.18v.45c0,.14,0,.27,0,.39s0,.23,0,.33a2.26,2.26,0,0,0,0,.27l-3.18,72.93c0-.09,0-.18,0-.29v-.36c0-.13,0-.27,0-.42s0-.32,0-.49"/></g></g></g><g class="cls-2"><g class="cls-15"><path class="cls-9" d="M367.77,588.57l13.51-56.24H503l-3.18,56.24H367.77"/></g></g></g><g class="cls-2"><g class="cls-2"><g class="cls-16"><path class="cls-4" d="M786.65,802.55,767.4,729.62q.92-6.17,1.82-12.32T771,705l1.8-12.32q.92-6.15,1.81-12.31l19.86,68.76q-1,6.68-2,13.36t-2,13.36q-1,6.67-2,13.35t-2,13.36"/></g></g><g class="cls-2"><g class="cls-17"><path class="cls-9" d="M761.77,695.59,744.47,631h37.42l20.48,64.59h-40.6"/></g></g><g class="cls-2"><g class="cls-18"><path class="cls-4" d="M802.37,695.59,781.89,631q.9-6.16,1.81-12.33t1.81-12.34q.91-6.18,1.82-12.35t1.81-12.35l21.1,60.42q-1,6.69-2,13.39t-2,13.39q-1,6.69-2,13.38t-2,13.38"/></g></g><g class="cls-2"><g class="cls-19"><path class="cls-4" d="M710.34,802.55l-13.28-72.93c1.47-14.38,3.44-33.28,5.6-53.7s4.51-42.35,6.7-62.8,4.24-39.42,5.81-53.89,2.66-24.44,2.94-26.9l15.07,56.24c-.3,2.67-1.48,13.49-3.19,29.18s-3.92,36.26-6.3,58.45-4.93,46-7.27,68.11-4.49,42.64-6.08,58.24"/></g></g><path class="cls-5" d="M653.1,802.55l3.63-53.47q1.8-26.75,3.62-53.49l3.63-53.5,3.63-53.52h43q-2.42,26.76-4.84,53.52t-4.84,53.5q-2.43,26.74-4.84,53.49l-4.83,53.47H653.1Z"/><g class="cls-2"><g class="cls-21"><path class="cls-4" d="M653.1,802.55l-8.8-72.93q1.66-24.64,3.34-49.3T651,631q1.66-24.66,3.34-49.32t3.35-49.35l9.94,56.24L664,642.09l-3.63,53.5q-1.82,26.74-3.62,53.49l-3.63,53.47"/></g></g><g class="cls-2"><g class="cls-22"><path class="cls-9" d="M667.61,588.57l-9.94-56.24h39.61l13.3,56.24h-43"/></g></g><g class="cls-2"><g class="cls-23"><path class="cls-9" d="M733.18,588.57l-15.07-56.24H838.54l25.29,56.24H733.18"/></g></g><path class="cls-5" d="M710.34,802.55c1.59-15.6,3.74-36.09,6.08-58.24s4.89-45.94,7.27-68.11,4.6-42.76,6.3-58.45,2.89-26.51,3.19-29.18H863.83c-.42,2.67-2.41,13.49-5.32,29.18S851.77,654,847.66,676.2s-8.5,46-12.52,68.11-7.67,42.64-10.31,58.24H786.65q1-6.67,2-13.36t2-13.35q1-6.69,2-13.36t2-13.36H755.12q-.84,6.68-1.66,13.36t-1.67,13.36q-.82,6.67-1.66,13.35t-1.66,13.36H710.34Zm58.09-160.5q-.84,6.69-1.67,13.39t-1.66,13.39q-.84,6.69-1.67,13.38t-1.66,13.38h40.6q1-6.69,2-13.38t2-13.38q1-6.71,2-13.39t2-13.39H768.43"/></g><g class="cls-2"><g class="cls-2"><g class="cls-25"><path class="cls-9" d="M559.18,668.85l-1.46-62.5h38l4.68,62.5h-41.2"/></g></g><g class="cls-2"><g class="cls-26"><path class="cls-4" d="M600.38,668.85l-4.68-62.5c.08-2.47.16-4.63.23-6.64s.13-3.86.19-5.72.13-3.7.2-5.71.14-4.17.22-6.65l4.76,60.42c-.09,2.68-.17,5-.25,7.2s-.14,4.19-.21,6.2-.13,4-.21,6.2-.16,4.52-.25,7.2"/></g></g><path class="cls-5" d="M519.54,802.55l-.6-53.47q-.3-26.75-.61-53.49l-.6-53.5q-.3-26.76-.61-53.52h128c-.12,2.67-.53,11.7-1.09,23.91s-1.26,27.6-2,43-1.4,30.76-2,43-1,21.22-1.09,23.9H558.57q-.11,10-.22,20t-.22,20.06q-.12,10-.23,20t-.23,20.06H519.54Zm39.94-160.5c0,2.68-.06,5-.08,7.2s0,4.19-.07,6.2-.05,4-.07,6.2,0,4.52-.08,7.2h41.2c.09-2.68.18-5,.25-7.2s.15-4.19.21-6.2.14-4,.21-6.2.16-4.52.25-7.2H559.48"/><g class="cls-2"><g class="cls-28"><path class="cls-9" d="M517.12,588.57,519,532.33h118l8.19,56.24h-128"/></g></g></g><polygon points="528.13 384.75 527.6 436.5 552.34 436.5 551.8 384.75 528.13 384.75"/><path d="M472.77,270.32H350.53l-4.7,45.13V270.32h-123l-1.05,5.89Q202.22,387,182.63,497.73l-.11.62v52.58H320.19l.71-6.64c1.16-10.8,7-65.57,9-82.77l0-.4V412.5h5.56l2.29-19.91-11,106v52.33h54.89l6.91-83.08h22.55l-1.93,30.9v52.18h55.22l.41-9.9q1.68-40,3.33-80V440.17H469l.29-6.83c1.12-26.92,3.22-102.33,3.45-110.87Z"/><path d="M604,270.32H477.68l-5.8,228.47v52.14H608.1V498.84ZM527.6,436.51l.54-51.76H551.8l.54,51.76Z"/><path d="M886.54,436.51H863V415.3l-5.08-30.55h10.17V332.17l-.11-.62q-4.9-27.66-9.8-55.34l-1-5.89H734.19v45.39l-4.72-45.39H679.28v52.25l2.57,30.84H661.68l-5.19-83.09H606.07v52.1l.52,12.34q4.35,104.67,8.71,209.33l.29,6.84h55.16V498.75l-1.93-30.9h22.55l6.92,83.08h54.94V498.6l-9.35-89.84h-5.06V363.09l21.49,187.84H897.48V498.35Z"/><g class="cls-2"><g class="cls-2"><g class="cls-29"><g class="cls-2"><path class="cls-30" d="M426.71,332.8v44.82H388.92V332.8h37.79"/></g></g></g><g class="cls-2"><g class="cls-31"><g class="cls-2"><path class="cls-30" d="M294.55,332.8v44.82H256.78V332.8h37.77"/></g></g></g><g class="cls-2"><g class="cls-32"><g class="cls-2"><path class="cls-33" d="M388.92,332.8v44.82c-.92,11.1-1.39,16.65-2.31,27.75V360.55c.92-11.11,1.39-16.65,2.31-27.75"/></g></g></g><g class="cls-2"><g class="cls-34"><g class="cls-2"><path class="cls-33" d="M338.69,277.45v44.82l-9.54,83.1V360.55l9.54-83.1"/></g></g></g><g class="cls-2"><g class="cls-35"><g class="cls-2"><path class="cls-36" d="M256.78,332.8v44.82c-1.73,11.1-2.6,16.64-4.34,27.75V360.55c1.74-11.11,2.61-16.65,4.34-27.75"/></g></g></g><g class="cls-2"><g class="cls-37"><g class="cls-2"><path class="cls-30" d="M329.15,360.55v44.82H310V360.55h19.2"/></g></g></g><g class="cls-2"><g class="cls-38"><g class="cls-2"><path class="cls-30" d="M462.18,388.22V433h-19.5V388.22h19.5"/></g></g></g><g class="cls-2"><g class="cls-39"><g class="cls-2"><path class="cls-33" d="M465.63,277.45v44.82c-.11,4.16-2.3,83.07-3.45,110.77V388.22c1.15-27.7,3.34-106.61,3.45-110.77"/></g></g></g><g class="cls-2"><g class="cls-40"><g class="cls-2"><path class="cls-30" d="M283.32,415.89v44.82H243.8V415.89h39.52"/></g></g></g><g class="cls-2"><g class="cls-41"><g class="cls-2"><path class="cls-33" d="M310,360.55v44.82Q306.5,433,303,460.71V415.89q3.45-27.66,6.91-55.34"/></g></g></g><g class="cls-2"><g class="cls-42"><g class="cls-2"><path class="cls-30" d="M421.52,415.89v44.82H382V415.89h39.52"/></g></g></g><g class="cls-2"><g class="cls-43"><g class="cls-2"><path class="cls-33" d="M442.68,388.22V433c-.58,11.06-.86,16.59-1.44,27.67V415.89c.58-11.08.86-16.61,1.44-27.67"/></g></g></g><g class="cls-2"><g class="cls-44"><g class="cls-2"><path class="cls-36" d="M243.8,415.89v44.82c-1.74,11.1-2.6,16.65-4.33,27.75V443.64c1.73-11.1,2.59-16.65,4.33-27.75"/></g></g></g><path class="cls-45" d="M462.18,388.22h-19.5c-.58,11.06-.86,16.59-1.44,27.67H461q-1.71,41.55-3.45,83.08H416.33q2.6-41.55,5.19-83.08H382q-3.45,41.55-6.91,83.08H333.9Q345.42,388.21,357,277.45H465.63C465.52,281.61,463.33,360.52,462.18,388.22ZM425,360.55c.7-11.11,1-16.65,1.74-27.75H388.92c-.92,11.1-1.39,16.64-2.31,27.75H425"/><g class="cls-2"><g class="cls-46"><g class="cls-2"><path class="cls-33" d="M461,415.89v44.82q-1.71,41.55-3.45,83.08V499q1.73-41.55,3.45-83.08"/></g></g></g><g class="cls-2"><g class="cls-47"><g class="cls-2"><path class="cls-30" d="M457.57,499v44.82H416.33V499h41.24"/></g></g></g><g class="cls-2"><g class="cls-48"><g class="cls-2"><path class="cls-33" d="M382,415.89v44.82q-3.45,41.55-6.91,83.08V499q3.45-41.55,6.91-83.08"/></g></g></g><g class="cls-2"><g class="cls-49"><g class="cls-2"><path class="cls-30" d="M375.09,499v44.82H333.9V499h41.19"/></g></g></g><g class="cls-2"><g class="cls-50"><g class="cls-2"><path class="cls-33" d="M322.82,415.89v44.82c-2.12,18.47-8.7,79.85-9,83.08V499c.34-3.23,6.92-64.61,9-83.08"/></g></g></g><path class="cls-1" d="M292.67,499v44.82h-103V499Z"/><path class="cls-45" d="M329.15,360.55H310q-3.45,27.66-6.91,55.34h19.78c-2.12,18.47-8.7,79.85-9,83.08H189.65q19.59-110.76,39.2-221.52H338.69Zm-49.6,83.09c1.51-11.1,2.26-16.65,3.77-27.75H243.8c-1.74,11.1-2.6,16.65-4.33,27.75h40.08m11.25-83.09c1.51-11.11,2.25-16.65,3.75-27.75H256.78c-1.73,11.1-2.6,16.64-4.34,27.75H290.8"/><path class="cls-30" d="M189.65,499v44.82H313.78V499Z"/></g><g class="cls-2"><g class="cls-2"><g class="cls-51"><g class="cls-2"><path class="cls-30" d="M558.86,332.8v44.82H521.07V332.8h37.79"/></g></g></g><g class="cls-2"><g class="cls-52"><g class="cls-2"><path class="cls-30" d="M560,443.64v44.82q-.57-55.43-1.15-110.84V332.8q.57,55.43,1.15,110.84"/></g></g></g><g class="cls-2"><g class="cls-53"><g class="cls-2"><path class="cls-33" d="M521.07,332.8v44.82q-.57,55.42-1.15,110.84V443.64q.57-55.42,1.15-110.84"/></g></g></g><path class="cls-45" d="M597,277.45,601,499H479l5.63-221.52ZM519.92,443.64H560q-.57-55.42-1.15-110.84H521.07q-.57,55.43-1.15,110.84"/><rect class="cls-54" x="479.01" y="498.97" width="121.96" height="44.82"/></g><g class="cls-2"><g class="cls-2"><g class="cls-55"><g class="cls-2"><path class="cls-30" d="M861,332.8v44.82H785.39V332.8H861"/></g></g></g><g class="cls-2"><g class="cls-56"><g class="cls-2"><path class="cls-30" d="M731.68,360.55v44.82h-19.2V360.55h19.2"/></g></g></g><g class="cls-2"><g class="cls-57"><g class="cls-2"><path class="cls-30" d="M693.33,360.55v44.82q-3.47-41.55-6.92-83.1V277.45q3.45,41.55,6.92,83.1"/></g></g></g><g class="cls-2"><g class="cls-58"><g class="cls-2"><path class="cls-30" d="M855.86,415.89v44.82H796.63V415.89h59.23"/></g></g></g><g class="cls-2"><g class="cls-59"><g class="cls-2"><path class="cls-30" d="M697.93,415.89v44.82h-39.5V415.89h39.5"/></g></g></g><path class="cls-45" d="M851.15,277.45Q856,305.14,861,332.8H785.39l3.75,27.75h57.51l9.21,55.34H796.63l3.75,27.75h80.18L890.34,499H766.68L741.33,277.45Z"/><g class="cls-2"><g class="cls-60"><g class="cls-2"><path class="cls-30" d="M890.34,499v44.82H766.68V499H890.34"/></g></g></g><path class="cls-45" d="M723,277.45q4.32,41.55,8.64,83.1h-19.2q2.58,27.66,5.18,55.34h19.79q4.32,41.55,8.64,83.08H704.85q-3.47-41.55-6.92-83.08h-39.5Q661,457.44,663.62,499H622.43q-4.62-110.76-9.22-221.52h36.57q2.61,41.55,5.19,83.1h38.36q-3.47-41.55-6.92-83.1Z"/><g class="cls-2"><g class="cls-61"><g class="cls-2"><path class="cls-30" d="M766.68,499v44.82L741.33,322.27V277.45L766.68,499"/></g></g></g><g class="cls-2"><g class="cls-62"><g class="cls-2"><path class="cls-30" d="M746.09,499v44.82H704.85V499h41.24"/></g></g></g><g class="cls-2"><g class="cls-63"><g class="cls-2"><path class="cls-30" d="M704.85,499v44.82q-3.47-41.55-6.92-83.08V415.89q3.47,41.55,6.92,83.08"/></g></g></g><g class="cls-2"><g class="cls-64"><g class="cls-2"><path class="cls-30" d="M663.62,499v44.82H622.43V499h41.19"/></g></g></g><g class="cls-2"><g class="cls-65"><g class="cls-2"><path class="cls-30" d="M622.43,499v44.82Q617.81,433,613.21,322.27V277.45q4.6,110.76,9.22,221.52"/></g></g></g></g></svg>